<svg width="32" height="32" viewBox="0 0 32 32" fill="none" xmlns="http://www.w3.org/2000/svg">
<g clip-path="url(#clip0_853_47507)">
<path fill-rule="evenodd" clip-rule="evenodd" d="M13.5114 25.2379L11.9236 24.3307L14.3743 23.105L14.055 22.4665L11.1979 23.895L11.2121 23.9243L8.85714 22.5786V20.1493L11.5171 18.8193L11.1979 18.1808L8.52571 19.5165L6.71429 18.3086V16.5779L9.37429 15.2479L9.055 14.6094L6.71429 15.7794V13.6908L8.51643 12.4901L11 13.8844V16.1365L9.76929 16.7522L10.0886 17.3908L11.3571 16.7565L12.6264 17.3908L12.9457 16.7522L11.7143 16.1365V13.6908L13.6986 12.3687C13.7971 12.3022 13.8571 12.1908 13.8571 12.0715V9.57155H13.1429V11.8801L11.1986 13.1765L8.85714 11.8622V8.88227L11 7.89799V11.0001H11.7143V7.57014L13.4943 6.753L16 8.00656V18.2793L10.4836 21.0379L10.8029 21.6765L16 19.0779V23.9936L13.5114 25.2379ZM24.2143 19.9286C24.2143 20.3222 23.8943 20.6429 23.5 20.6429C23.1064 20.6429 22.7857 20.3222 22.7857 19.9286C22.7857 19.535 23.1064 19.2143 23.5 19.2143C23.8943 19.2143 24.2143 19.535 24.2143 19.9286ZM20.6429 23.1429C20.6429 23.5364 20.3229 23.8572 19.9286 23.8572C19.535 23.8572 19.2143 23.5364 19.2143 23.1429C19.2143 22.7493 19.535 22.4286 19.9286 22.4286C20.3229 22.4286 20.6429 22.7493 20.6429 23.1429ZM19.9286 8.85727C19.9286 8.4637 20.2493 8.14299 20.6429 8.14299C21.0371 8.14299 21.3571 8.4637 21.3571 8.85727C21.3571 9.25084 21.0371 9.57155 20.6429 9.57155C20.2493 9.57155 19.9286 9.25084 19.9286 8.85727ZM24.5714 14.2144C24.9657 14.2144 25.2857 14.5351 25.2857 14.9287C25.2857 15.3222 24.9657 15.6429 24.5714 15.6429C24.1779 15.6429 23.8571 15.3222 23.8571 14.9287C23.8571 14.5351 24.1779 14.2144 24.5714 14.2144ZM23.1936 15.2858C23.3536 15.9001 23.9079 16.3572 24.5714 16.3572C25.3593 16.3572 26 15.7165 26 14.9287C26 14.1408 25.3593 13.5001 24.5714 13.5001C23.9079 13.5001 23.3536 13.9572 23.1936 14.5715H16.7143V12.4287H20.6429C20.8407 12.4287 21 12.2687 21 12.0715V10.2351C21.6143 10.0751 22.0714 9.52084 22.0714 8.85727C22.0714 8.06942 21.4307 7.42871 20.6429 7.42871C19.8557 7.42871 19.2143 8.06942 19.2143 8.85727C19.2143 9.52084 19.6714 10.0751 20.2857 10.2351V11.7144H16.7143V7.78585C16.7143 7.65014 16.6379 7.52728 16.5171 7.46657L13.66 6.03801C13.5629 5.98944 13.45 5.98729 13.3507 6.03229L8.35071 8.3287C8.225 8.38656 8.14286 8.5137 8.14286 8.65299V11.8801L6.15929 13.203C6.06 13.2694 6 13.3808 6 13.5001V18.5001C6 18.6193 6.06 18.7308 6.15929 18.7972L8.14286 20.1193V22.7857C8.14286 22.9136 8.21143 23.0322 8.32286 23.0957L13.3229 25.9529C13.3779 25.9843 13.4386 26 13.5 26C13.555 26 13.61 25.9871 13.66 25.9621L16.5171 24.5336C16.6379 24.4729 16.7143 24.3493 16.7143 24.2143V21H19.5714V21.765C18.9571 21.925 18.5 22.4793 18.5 23.1429C18.5 23.9307 19.1414 24.5714 19.9286 24.5714C20.7164 24.5714 21.3571 23.9307 21.3571 23.1429C21.3571 22.4793 20.9 21.925 20.2857 21.765V20.6429C20.2857 20.4458 20.1264 20.2858 19.9286 20.2858H16.7143V18.1429H21.2093L22.2743 19.2072C22.1486 19.42 22.0714 19.6643 22.0714 19.9286C22.0714 20.7165 22.7129 21.3572 23.5 21.3572C24.2879 21.3572 24.9286 20.7165 24.9286 19.9286C24.9286 19.1408 24.2879 18.5001 23.5 18.5001C23.2364 18.5001 22.9914 18.5772 22.7793 18.7022L21.61 17.5329C21.5429 17.4665 21.4521 17.4286 21.3571 17.4286H16.7143V15.2858H23.1936Z" fill="white"/>
</g>
<defs>
<clipPath id="clip0_853_47507">
<rect width="32" height="32" rx="16" fill="white"/>
</clipPath>
</defs>
</svg>
