<svg width="32" height="32" viewBox="0 0 32 32" fill="none" xmlns="http://www.w3.org/2000/svg">
<g clip-path="url(#clip0_657_44532)">
<g clip-path="url(#clip1_657_44532)">
<g clip-path="url(#clip2_657_44532)">
<ellipse cx="15.8154" cy="34.2154" rx="11.8154" ry="11.8154" fill="url(#paint0_radial_657_44532)"/>
<g filter="url(#filter0_f_657_44532)">
<path fill-rule="evenodd" clip-rule="evenodd" d="M13.6072 43.8758C19.8657 43.8758 24.9392 38.8023 24.9392 32.5438C24.9392 29.0668 23.3734 25.9556 20.9083 23.8769C24.5637 25.7572 27.064 29.5667 27.064 33.9603C27.064 40.2188 21.9905 45.2923 15.732 45.2923C12.9504 45.2923 10.4029 44.2901 8.43088 42.6271C9.98251 43.4253 11.7423 43.8758 13.6072 43.8758Z" fill="#341478"/>
</g>
<g filter="url(#filter1_f_657_44532)">
<ellipse cx="5.90769" cy="5.90769" rx="5.90769" ry="5.90769" transform="matrix(-1 0 0 1 18.0308 24.6154)" fill="#7638FA" fill-opacity="0.5"/>
</g>
<g filter="url(#filter2_f_657_44532)">
<ellipse cx="2.95385" cy="2.95384" rx="2.95385" ry="2.95384" transform="matrix(-1 0 0 1 13.6001 26.0923)" fill="#7638FA"/>
</g>
<g filter="url(#filter3_f_657_44532)">
<ellipse cx="16" cy="22.9" rx="3" ry="1" fill="#341478"/>
</g>
</g>
<g filter="url(#filter4_d_657_44532)">
<g clip-path="url(#clip3_657_44532)">
<ellipse cx="16.0001" cy="14.4" rx="6.4" ry="6.4" fill="url(#paint1_radial_657_44532)"/>
<g filter="url(#filter5_f_657_44532)">
<path fill-rule="evenodd" clip-rule="evenodd" d="M14.8038 19.6327C18.1939 19.6327 20.942 16.8846 20.942 13.4946C20.942 11.6112 20.0938 9.926 18.7586 8.80002C20.7386 9.81851 22.0929 11.882 22.0929 14.2618C22.0929 17.6519 19.3448 20.4 15.9547 20.4C14.4481 20.4 13.0682 19.8572 12 18.9564C12.8404 19.3887 13.7936 19.6327 14.8038 19.6327Z" fill="#341478"/>
</g>
<g filter="url(#filter6_f_657_44532)">
<ellipse cx="3.2" cy="3.2" rx="3.2" ry="3.2" transform="matrix(-1 0 0 1 17.2002 9.2)" fill="#7638FA" fill-opacity="0.5"/>
</g>
<g filter="url(#filter7_f_657_44532)">
<ellipse cx="1.6" cy="1.6" rx="1.6" ry="1.6" transform="matrix(-1 0 0 1 14.8 10)" fill="#7638FA"/>
</g>
</g>
</g>
</g>
</g>
<defs>
<filter id="filter0_f_657_44532" x="5.43091" y="20.8769" width="24.6331" height="27.4154" filterUnits="userSpaceOnUse" color-interpolation-filters="sRGB">
<feFlood flood-opacity="0" result="BackgroundImageFix"/>
<feBlend mode="normal" in="SourceGraphic" in2="BackgroundImageFix" result="shape"/>
<feGaussianBlur stdDeviation="1.5" result="effect1_foregroundBlur_657_44532"/>
</filter>
<filter id="filter1_f_657_44532" x="3.21533" y="21.6154" width="17.8154" height="17.8154" filterUnits="userSpaceOnUse" color-interpolation-filters="sRGB">
<feFlood flood-opacity="0" result="BackgroundImageFix"/>
<feBlend mode="normal" in="SourceGraphic" in2="BackgroundImageFix" result="shape"/>
<feGaussianBlur stdDeviation="1.5" result="effect1_foregroundBlur_657_44532"/>
</filter>
<filter id="filter2_f_657_44532" x="4.69238" y="23.0923" width="11.9077" height="11.9077" filterUnits="userSpaceOnUse" color-interpolation-filters="sRGB">
<feFlood flood-opacity="0" result="BackgroundImageFix"/>
<feBlend mode="normal" in="SourceGraphic" in2="BackgroundImageFix" result="shape"/>
<feGaussianBlur stdDeviation="1.5" result="effect1_foregroundBlur_657_44532"/>
</filter>
<filter id="filter3_f_657_44532" x="10" y="18.9" width="12" height="8" filterUnits="userSpaceOnUse" color-interpolation-filters="sRGB">
<feFlood flood-opacity="0" result="BackgroundImageFix"/>
<feBlend mode="normal" in="SourceGraphic" in2="BackgroundImageFix" result="shape"/>
<feGaussianBlur stdDeviation="1.5" result="effect1_foregroundBlur_657_44532"/>
</filter>
<filter id="filter4_d_657_44532" x="6.6001" y="7" width="22.8" height="22.8" filterUnits="userSpaceOnUse" color-interpolation-filters="sRGB">
<feFlood flood-opacity="0" result="BackgroundImageFix"/>
<feColorMatrix in="SourceAlpha" type="matrix" values="0 0 0 0 0 0 0 0 0 0 0 0 0 0 0 0 0 0 127 0" result="hardAlpha"/>
<feOffset dx="2" dy="4"/>
<feGaussianBlur stdDeviation="2.5"/>
<feComposite in2="hardAlpha" operator="out"/>
<feColorMatrix type="matrix" values="0 0 0 0 0 0 0 0 0 0 0 0 0 0 0 0 0 0 0.1 0"/>
<feBlend mode="normal" in2="BackgroundImageFix" result="effect1_dropShadow_657_44532"/>
<feBlend mode="normal" in="SourceGraphic" in2="effect1_dropShadow_657_44532" result="shape"/>
</filter>
<filter id="filter5_f_657_44532" x="9" y="5.80003" width="16.093" height="17.6" filterUnits="userSpaceOnUse" color-interpolation-filters="sRGB">
<feFlood flood-opacity="0" result="BackgroundImageFix"/>
<feBlend mode="normal" in="SourceGraphic" in2="BackgroundImageFix" result="shape"/>
<feGaussianBlur stdDeviation="1.5" result="effect1_foregroundBlur_657_44532"/>
</filter>
<filter id="filter6_f_657_44532" x="7.80029" y="6.2" width="12.3999" height="12.4" filterUnits="userSpaceOnUse" color-interpolation-filters="sRGB">
<feFlood flood-opacity="0" result="BackgroundImageFix"/>
<feBlend mode="normal" in="SourceGraphic" in2="BackgroundImageFix" result="shape"/>
<feGaussianBlur stdDeviation="1.5" result="effect1_foregroundBlur_657_44532"/>
</filter>
<filter id="filter7_f_657_44532" x="8.6001" y="7.00002" width="9.19995" height="9.2" filterUnits="userSpaceOnUse" color-interpolation-filters="sRGB">
<feFlood flood-opacity="0" result="BackgroundImageFix"/>
<feBlend mode="normal" in="SourceGraphic" in2="BackgroundImageFix" result="shape"/>
<feGaussianBlur stdDeviation="1.5" result="effect1_foregroundBlur_657_44532"/>
</filter>
<radialGradient id="paint0_radial_657_44532" cx="0" cy="0" r="1" gradientUnits="userSpaceOnUse" gradientTransform="translate(4 22.4) rotate(45) scale(33.4189)">
<stop stop-color="#7638FA"/>
<stop offset="1" stop-color="#341478"/>
</radialGradient>
<radialGradient id="paint1_radial_657_44532" cx="0" cy="0" r="1" gradientUnits="userSpaceOnUse" gradientTransform="translate(9.6001 8) rotate(45) scale(18.1019)">
<stop stop-color="#7638FA"/>
<stop offset="1" stop-color="#341478"/>
</radialGradient>
<clipPath id="clip0_657_44532">
<rect width="32" height="32" rx="16" fill="white"/>
</clipPath>
<clipPath id="clip1_657_44532">
<rect width="32" height="32" rx="16" fill="white"/>
</clipPath>
<clipPath id="clip2_657_44532">
<rect x="4" y="22.4" width="23.6308" height="23.6308" rx="11.8154" fill="white"/>
</clipPath>
<clipPath id="clip3_657_44532">
<rect x="9.6001" y="8" width="12.8" height="12.8" rx="6.4" fill="white"/>
</clipPath>
</defs>
</svg>
