<svg width="32" height="32" viewBox="0 0 32 32" fill="none" xmlns="http://www.w3.org/2000/svg">
<g clip-path="url(#clip0_657_44532)">
<g clip-path="url(#clip1_657_44532)">
<rect width="32" height="32" rx="16" fill="white" fill-opacity="0.2"/>
<g filter="url(#filter0_d_657_44532)">
<ellipse cx="15.8154" cy="34.2154" rx="11.8154" ry="11.8154" fill="url(#paint0_radial_657_44532)"/>
<path fill-rule="evenodd" clip-rule="evenodd" d="M13.6073 43.8758C19.8658 43.8758 24.9393 38.8022 24.9393 32.5438C24.9393 29.0668 23.3734 25.9556 20.9084 23.8769C24.5637 25.7572 27.064 29.5667 27.064 33.9603C27.064 40.2188 21.9905 45.2923 15.732 45.2923C12.9504 45.2923 10.4029 44.2901 8.43091 42.6271C9.98254 43.4252 11.7423 43.8758 13.6073 43.8758Z" fill="#341478"/>
<ellipse cx="5.90769" cy="5.90769" rx="5.90769" ry="5.90769" transform="matrix(-1 0 0 1 18.0308 24.6154)" fill="#7638FA" fill-opacity="0.5"/>
<ellipse cx="2.95385" cy="2.95384" rx="2.95385" ry="2.95384" transform="matrix(-1 0 0 1 13.6001 26.0923)" fill="#7638FA"/>
<g filter="url(#filter1_b_657_44532)">
<ellipse cx="16" cy="34.4" rx="12" ry="12" fill="white" fill-opacity="0.01"/>
</g>
</g>
<g filter="url(#filter2_d_657_44532)">
<ellipse cx="16.0001" cy="14.4" rx="6.4" ry="6.4" fill="url(#paint1_radial_657_44532)"/>
<path fill-rule="evenodd" clip-rule="evenodd" d="M14.8039 19.6327C18.1939 19.6327 20.942 16.8846 20.942 13.4946C20.942 11.6112 20.0938 9.92599 18.7586 8.80002C20.7386 9.8185 22.0929 11.882 22.0929 14.2618C22.0929 17.6519 19.3448 20.4 15.9548 20.4C14.4481 20.4 13.0682 19.8572 12 18.9564C12.8405 19.3887 13.7937 19.6327 14.8039 19.6327Z" fill="#341478"/>
<ellipse cx="3.2" cy="3.2" rx="3.2" ry="3.2" transform="matrix(-1 0 0 1 17.2002 9.2)" fill="#7638FA" fill-opacity="0.5"/>
<ellipse cx="1.6" cy="1.6" rx="1.6" ry="1.6" transform="matrix(-1 0 0 1 14.8 10)" fill="#7638FA"/>
<g filter="url(#filter3_b_657_44532)">
<ellipse cx="16.0001" cy="14.4" rx="6.4" ry="6.4" fill="white" fill-opacity="0.01"/>
</g>
</g>
</g>
<rect x="0.5" y="0.5" width="31" height="31" rx="15.5" stroke="#E9EBED"/>
</g>
<defs>
<filter id="filter0_d_657_44532" x="3.2" y="21.6" width="27.2" height="27.2" filterUnits="userSpaceOnUse" color-interpolation-filters="sRGB">
<feFlood flood-opacity="0" result="BackgroundImageFix"/>
<feColorMatrix in="SourceAlpha" type="matrix" values="0 0 0 0 0 0 0 0 0 0 0 0 0 0 0 0 0 0 127 0" result="hardAlpha"/>
<feOffset dx="0.8" dy="0.8"/>
<feGaussianBlur stdDeviation="0.8"/>
<feComposite in2="hardAlpha" operator="out"/>
<feColorMatrix type="matrix" values="0 0 0 0 0 0 0 0 0 0 0 0 0 0 0 0 0 0 0.08 0"/>
<feBlend mode="normal" in2="BackgroundImageFix" result="effect1_dropShadow_657_44532"/>
<feBlend mode="normal" in="SourceGraphic" in2="effect1_dropShadow_657_44532" result="shape"/>
</filter>
<filter id="filter1_b_657_44532" x="0" y="18.4" width="32" height="32" filterUnits="userSpaceOnUse" color-interpolation-filters="sRGB">
<feFlood flood-opacity="0" result="BackgroundImageFix"/>
<feGaussianBlur in="BackgroundImageFix" stdDeviation="2"/>
<feComposite in2="SourceAlpha" operator="in" result="effect1_backgroundBlur_657_44532"/>
<feBlend mode="normal" in="SourceGraphic" in2="effect1_backgroundBlur_657_44532" result="shape"/>
</filter>
<filter id="filter2_d_657_44532" x="8.8001" y="7.2" width="16" height="16" filterUnits="userSpaceOnUse" color-interpolation-filters="sRGB">
<feFlood flood-opacity="0" result="BackgroundImageFix"/>
<feColorMatrix in="SourceAlpha" type="matrix" values="0 0 0 0 0 0 0 0 0 0 0 0 0 0 0 0 0 0 127 0" result="hardAlpha"/>
<feOffset dx="0.8" dy="0.8"/>
<feGaussianBlur stdDeviation="0.8"/>
<feComposite in2="hardAlpha" operator="out"/>
<feColorMatrix type="matrix" values="0 0 0 0 0 0 0 0 0 0 0 0 0 0 0 0 0 0 0.08 0"/>
<feBlend mode="normal" in2="BackgroundImageFix" result="effect1_dropShadow_657_44532"/>
<feBlend mode="normal" in="SourceGraphic" in2="effect1_dropShadow_657_44532" result="shape"/>
</filter>
<filter id="filter3_b_657_44532" x="5.6001" y="4" width="20.8" height="20.8" filterUnits="userSpaceOnUse" color-interpolation-filters="sRGB">
<feFlood flood-opacity="0" result="BackgroundImageFix"/>
<feGaussianBlur in="BackgroundImageFix" stdDeviation="2"/>
<feComposite in2="SourceAlpha" operator="in" result="effect1_backgroundBlur_657_44532"/>
<feBlend mode="normal" in="SourceGraphic" in2="effect1_backgroundBlur_657_44532" result="shape"/>
</filter>
<radialGradient id="paint0_radial_657_44532" cx="0" cy="0" r="1" gradientUnits="userSpaceOnUse" gradientTransform="translate(4 22.4) rotate(45) scale(33.4189)">
<stop stop-color="#7638FA"/>
<stop offset="1" stop-color="#341478"/>
</radialGradient>
<radialGradient id="paint1_radial_657_44532" cx="0" cy="0" r="1" gradientUnits="userSpaceOnUse" gradientTransform="translate(9.6001 8) rotate(45) scale(18.1019)">
<stop stop-color="#7638FA"/>
<stop offset="1" stop-color="#341478"/>
</radialGradient>
<clipPath id="clip0_657_44532">
<rect width="32" height="32" rx="16" fill="white"/>
</clipPath>
<clipPath id="clip1_657_44532">
<rect width="32" height="32" rx="16" fill="white"/>
</clipPath>
</defs>
</svg>
